# xmcd CD database file
#
# Track frame offsets:
#	150
#	20620
#	53000
#	69292
#	98452
#	119010
#	135662
#	166032
#	194782
#	221377
#	241225
#
# Disc length: 3665 seconds
#
# Revision: 1
# Processed by: cddbd v1.5.2PL0 Copyright (c) Steve Scherf et al.
# Submitted via: CDex 1.70beta2
#
DISCID=920e4f0b
DTITLE=Bill Evans - A Tribute
DYEAR=1992
DGENRE=Jazz
TTITLE0=Waltz for Debby - George Shearing
TTITLE1=Blue and Green - Richie Beirach
TTITLE2=But Beautiful - Teddy Wilson
TTITLE3=Fun Ride - Warren Bernhardt
TTITLE4=I'll Remember April - John Lewis
TTITLE5=Emily - Dave McKenna
TTITLE6=Dolphin Dance - Herbie Hancock
TTITLE7=Song for Helen - Joanne Beackeen
TTITLE8=How Deep is the Ocean - Jimmy Rowles
TTITLE9=Night and Day - Dave Frishberg
TTITLE10=We Will Meet Again - McCoy Tyner
EXTD=YEAR: 1992
EXTT0=
EXTT1=
EXTT2=
EXTT3=
EXTT4=
EXTT5=
EXTT6=
EXTT7=
EXTT8=
EXTT9=
EXTT10=
PLAYORDER=
